<?xml version="1.0" encoding="UTF-8"?>
<svg xmlns="http://www.w3.org/2000/svg" xmlns:xlink="http://www.w3.org/1999/xlink" width="640pt" height="480pt" viewBox="0 0 640 480" version="1.1">
<g id="surface1">
<path style=" stroke:none;fill-rule:nonzero;fill:rgb(0%,50.59967%,28.199768%);fill-opacity:1;" d="M 444.304688 92.238281 C 433.863281 70.609375 410.789063 64.5 391.699219 65.957031 C 376.09375 67.117188 364.683594 73.257813 359.628906 76.523438 L 358.589844 77.683594 L 360.070313 77.59375 C 395.058594 68.855469 416.621094 77.578125 427.230469 98.8125 C 438.875 122.15625 424.578125 161.925781 385.953125 179.132813 C 341.984375 198.230469 304.398438 181.140625 304.398438 146.953125 C 304.398438 128.125 312.699219 113.101563 325.601563 100.324219 L 326.003906 99.421875 L 325.199219 99.511719 C 314.683594 105.097656 277.78125 127.882813 290.46875 166.671875 C 298.472656 191.308594 332.277344 204.535156 362.113281 193.738281 C 363.398438 193.289063 364.683594 192.695313 364.875 193.023438 C 365.097656 193.359375 364.792969 193.5625 363.230469 194.679688 C 354.5 201.039063 352.789063 219.65625 353.078125 231.355469 C 353.324219 238.992188 352.277344 252.15625 352.277344 252.15625 C 352.277344 252.15625 358.1875 251.964844 363.976563 251.964844 C 369.75 251.964844 374.878906 252.15625 374.878906 252.15625 C 374.878906 252.15625 371.890625 228.0625 371.890625 206.449219 C 371.890625 193.828125 377.320313 194.976563 395.402344 185.882813 C 422.175781 173.898438 463.894531 132.808594 444.304688 92.238281 "/>
<path style=" stroke:none;fill-rule:nonzero;fill:rgb(0%,50.59967%,28.199768%);fill-opacity:1;" d="M 357.003906 93.015625 C 343.203125 67.65625 300.453125 54.117188 251.539063 82.503906 C 202.609375 110.90625 197.816406 156.863281 209.1875 177.191406 C 219.644531 195.882813 244.753906 207.234375 271.9375 197.207031 C 273.449219 196.640625 274.484375 195.894531 274.710938 196.355469 C 274.949219 196.828125 274.851563 196.683594 273.339844 198.140625 C 264.582031 206.449219 263.714844 224.039063 263.433594 232.730469 C 263.214844 240.679688 261.78125 252.160156 261.78125 252.160156 C 261.78125 252.160156 267.28125 251.964844 273.070313 251.964844 C 278.855469 251.964844 284.410156 252.160156 284.410156 252.160156 C 284.410156 252.160156 281.738281 221.1875 282.164063 203.160156 C 282.351563 195.679688 285.132813 192.480469 290.113281 188.59375 L 290.492188 187.800781 L 287.496094 188.554688 C 282.972656 189.851563 275.511719 191.578125 265.996094 191.128906 C 245.9375 190.175781 219.953125 181.660156 219.953125 149.835938 C 219.953125 117.113281 240.917969 100.253906 261.03125 88.726563 C 284.445313 75.320313 326.5 73.492188 341.726563 100.402344 C 354.625 123.144531 343.546875 143.402344 325.421875 164.558594 L 325.078125 165.394531 L 325.921875 165.269531 C 338.296875 159.386719 378.355469 132.335938 357.003906 93.015625 "/>
<path style=" stroke:none;fill-rule:nonzero;fill:rgb(22.399902%,21.998596%,21.998596%);fill-opacity:1;" d="M 62.726563 302.164063 C 62.726563 296.046875 62.726563 289.289063 62.832031 286.652344 L 63.746094 285.089844 C 64.371094 284.785156 67.242188 284.566406 68.8125 284.566406 C 74.820313 284.566406 83.675781 285.492188 90.796875 292.300781 C 94.160156 295.492188 98.261719 301.859375 98.261719 311.722656 C 98.261719 319.707031 96.695313 326.753906 91.769531 331.019531 C 87.113281 335.054688 81.824219 336.617188 73.902344 336.617188 C 67.777344 336.617188 64.75 334.984375 63.746094 333.519531 C 63.113281 332.664063 62.96875 329.542969 62.898438 327.609375 C 62.832031 326.144531 62.726563 320.148438 62.726563 311.945313 Z M 53.035156 317.054688 C 53.035156 324.183594 53.035156 330.316406 52.65625 333.578125 C 52.34375 335.84375 51.953125 337.527344 50.40625 337.859375 L 47.605469 338.148438 L 46.390625 338.796875 L 47.917969 339.570313 C 51.019531 339.570313 55.910156 339.308594 57.71875 339.308594 C 61.566406 339.308594 68.554688 340.261719 74.210938 340.261719 C 88.558594 340.261719 96.617188 334.765625 100.183594 331.117188 C 104.527344 326.683594 108.65625 319.238281 108.65625 309.457031 C 108.65625 300.230469 104.996094 293.78125 101.148438 289.746094 C 92.675781 280.902344 79.730469 280.902344 70.015625 280.902344 C 65.386719 280.902344 60.496094 281.140625 58.058594 281.140625 C 55.910156 281.140625 51.019531 280.902344 46.902344 280.902344 L 45.21875 281.609375 L 46.515625 282.300781 L 49.546875 282.535156 C 52.101563 283.085938 52.726563 284.316406 52.882813 286.96875 C 53.035156 289.457031 53.035156 291.597656 53.035156 303.40625 "/>
<path style=" stroke:none;fill-rule:nonzero;fill:rgb(22.399902%,21.998596%,21.998596%);fill-opacity:1;" d="M 149.972656 337.335938 C 138.433594 337.335938 131.503906 327.402344 131.503906 314.902344 C 131.503906 299.925781 139.390625 296.070313 146.3125 296.070313 C 156.183594 296.070313 163.953125 304.429688 163.953125 317.910156 C 163.953125 335.289063 154.195313 337.335938 149.972656 337.335938 M 147.460938 340.34375 C 162.738281 340.34375 172.378906 329.460938 172.378906 315.6875 C 172.378906 301.886719 163.0625 293.1875 148.054688 293.1875 C 130.019531 293.1875 123.214844 306.476563 123.214844 316.765625 C 123.214844 327.402344 130.214844 340.34375 147.460938 340.34375 "/>
<path style=" stroke:none;fill-rule:nonzero;fill:rgb(22.399902%,21.998596%,21.998596%);fill-opacity:1;" d="M 191.976563 311.460938 C 191.976563 302.328125 191.976563 300.644531 191.84375 298.738281 C 191.734375 296.679688 191.25 295.699219 189.289063 295.285156 L 186.925781 295.105469 L 185.890625 294.566406 L 187.238281 294.042969 C 190.414063 294.042969 194.203125 294.207031 196.015625 294.207031 C 197.445313 294.207031 201.238281 294.042969 203.386719 294.042969 L 204.730469 294.566406 L 203.785156 295.105469 L 202.03125 295.285156 C 200.386719 295.574219 199.910156 296.609375 199.792969 298.738281 C 199.683594 300.644531 199.683594 302.328125 199.683594 311.460938 L 199.683594 319.902344 C 199.683594 328.617188 201.449219 332.277344 204.367188 334.710938 C 207.066406 336.90625 209.835938 337.167969 211.886719 337.167969 C 214.503906 337.167969 217.800781 336.3125 220.203125 333.90625 C 223.503906 330.59375 223.683594 325.179688 223.683594 318.988281 L 223.683594 311.460938 C 223.683594 302.328125 223.683594 300.644531 223.5625 298.738281 C 223.429688 296.679688 222.96875 295.699219 220.984375 295.285156 L 218.796875 295.105469 L 217.800781 294.566406 L 219.0625 294.042969 C 222.144531 294.042969 225.894531 294.207031 225.964844 294.207031 C 226.683594 294.207031 230.460938 294.042969 232.824219 294.042969 L 234.085938 294.566406 L 233.019531 295.105469 L 231.253906 295.285156 C 229.652344 295.574219 229.175781 296.609375 229.042969 298.738281 C 228.933594 300.644531 228.933594 302.328125 228.933594 311.460938 L 228.933594 317.910156 C 228.933594 324.585938 228.257813 331.699219 223.210938 336.007813 C 218.933594 339.683594 214.574219 340.34375 210.6875 340.34375 C 207.488281 340.34375 201.722656 340.179688 197.320313 336.203125 C 194.277344 333.425781 191.976563 328.992188 191.976563 320.246094 "/>
<path style=" stroke:none;fill-rule:nonzero;fill:rgb(22.399902%,21.998596%,21.998596%);fill-opacity:1;" d="M 264.46875 297.632813 L 265.003906 296.613281 L 266.996094 296.472656 C 272.179688 296.472656 274.523438 301.777344 274.523438 305.8125 C 274.523438 308.769531 273.609375 310.921875 272.046875 312.191406 C 271.042969 313.105469 269.710938 313.339844 267.722656 313.339844 C 266.363281 313.339844 265.429688 313.269531 264.890625 313.160156 L 264.46875 312.496094 Z M 257.238281 322.058594 C 257.238281 327.582031 257.238281 332.363281 256.941406 334.875 C 256.699219 336.617188 256.386719 337.941406 255.1875 338.191406 L 253.039063 338.410156 L 252.09375 338.910156 L 253.28125 339.519531 C 255.710938 339.519531 259.476563 339.308594 260.871094 339.308594 C 262.667969 339.308594 268.128906 339.683594 269.574219 339.683594 C 280.652344 339.683594 285.652344 333.023438 285.652344 326.558594 C 285.652344 319.542969 279.632813 315.261719 274.703125 313.574219 C 278.019531 310.921875 280.84375 307.980469 280.84375 303.046875 C 280.84375 299.859375 278.910156 294.042969 268.035156 294.042969 C 265.980469 294.042969 263.648438 294.207031 260.664063 294.207031 C 259.476563 294.207031 255.710938 294.042969 252.5 294.042969 L 251.175781 294.566406 L 252.21875 295.105469 L 254.550781 295.285156 C 256.53125 295.699219 256.996094 296.679688 257.128906 298.738281 C 257.238281 300.644531 257.238281 302.328125 257.238281 311.460938 Z M 278.242188 329.28125 C 278.242188 335.539063 273.691406 336.976563 270.988281 336.976563 C 269.574219 336.976563 268.171875 336.90625 266.574219 336.242188 C 264.636719 335.484375 264.46875 334.445313 264.46875 330.46875 L 264.46875 316.214844 L 264.835938 315.8125 L 267.410156 315.867188 C 269.773438 315.980469 271.140625 316.394531 272.417969 317.320313 C 276.972656 320.480469 278.242188 325.550781 278.242188 329.28125 "/>
<path style=" stroke:none;fill-rule:nonzero;fill:rgb(22.399902%,21.998596%,21.998596%);fill-opacity:1;" d="M 318.746094 322.058594 C 318.746094 329.738281 318.746094 333.910156 320 335 C 321.03125 335.898438 322.605469 336.3125 327.277344 336.3125 C 330.480469 336.3125 332.828125 336.242188 334.320313 334.613281 L 335.894531 331.019531 L 336.53125 330.125 L 337.027344 331.144531 C 337.027344 331.808594 336.597656 336.3125 336.128906 338.054688 C 335.785156 339.378906 335.464844 339.683594 332.328125 339.683594 C 323.667969 339.683594 319.703125 339.308594 314.839844 339.308594 C 313.453125 339.308594 309.660156 339.519531 307.246094 339.519531 L 306.042969 338.910156 L 307.015625 338.410156 L 309.164063 338.191406 C 310.371094 337.941406 310.671875 336.617188 310.917969 334.875 C 311.203125 332.363281 311.203125 327.582031 311.203125 322.058594 L 311.203125 311.460938 C 311.203125 302.328125 311.203125 300.644531 311.105469 298.738281 C 310.980469 296.679688 310.511719 295.699219 308.515625 295.285156 L 306.511719 295.105469 L 305.519531 294.566406 L 306.824219 294.042969 C 309.660156 294.042969 313.453125 294.207031 315.0625 294.207031 C 316.519531 294.207031 320.921875 294.042969 323.253906 294.042969 L 324.511719 294.566406 L 323.433594 295.105469 L 321.113281 295.285156 C 319.449219 295.574219 318.972656 296.613281 318.855469 298.738281 C 318.746094 300.644531 318.746094 302.328125 318.746094 311.460938 "/>
<path style=" stroke:none;fill-rule:nonzero;fill:rgb(22.399902%,21.998596%,21.998596%);fill-opacity:1;" d="M 360.246094 311.460938 C 360.246094 302.328125 360.246094 300.644531 360.097656 298.738281 C 360.011719 296.679688 359.515625 295.699219 357.539063 295.285156 L 355.207031 295.105469 L 354.183594 294.566406 L 355.507813 294.042969 C 358.6875 294.042969 362.472656 294.207031 364.183594 294.207031 C 366.089844 294.207031 378.054688 294.207031 379.1875 294.125 L 381.785156 293.78125 L 382.738281 293.515625 L 383.109375 294.070313 C 383.109375 294.496094 382.804688 295.230469 382.625 297.992188 L 382.335938 301.957031 L 381.726563 302.621094 L 381.203125 301.777344 L 380.816406 299.621094 C 380.402344 298.53125 379.808594 297.8125 376.796875 297.453125 L 368.273438 297.21875 L 367.804688 297.8125 L 367.804688 313.023438 L 368.273438 313.699219 C 369.570313 313.699219 376.476563 313.699219 377.886719 313.574219 C 379.3125 313.464844 380.207031 313.269531 380.730469 312.664063 L 381.726563 311.890625 L 382.15625 312.359375 C 382.15625 312.730469 381.839844 313.699219 381.65625 316.765625 L 381.4375 320.800781 L 380.871094 321.917969 L 380.347656 321.40625 L 380.097656 319.238281 C 379.808594 318.023438 378.964844 317.109375 376.742188 316.890625 C 375.582031 316.765625 369.640625 316.710938 368.1875 316.710938 L 367.804688 317.316406 L 367.804688 322.058594 C 367.804688 324.101563 367.75 329.640625 367.804688 331.394531 C 367.941406 335.539063 368.910156 336.449219 375.042969 336.449219 C 376.617188 336.449219 379.132813 336.449219 380.703125 335.703125 C 382.28125 335 383 333.730469 383.398438 331.257813 L 384.078125 330.359375 L 384.5625 331.449219 C 384.5625 332.816406 384.078125 336.90625 383.773438 338.121094 C 383.34375 339.683594 382.804688 339.683594 380.539063 339.683594 C 371.425781 339.683594 367.402344 339.308594 363.851563 339.308594 C 362.472656 339.308594 358.6875 339.519531 356.28125 339.519531 L 355.09375 338.910156 L 356.007813 338.410156 L 358.214844 338.191406 C 359.433594 337.941406 359.695313 336.617188 359.957031 334.875 C 360.246094 332.359375 360.246094 327.582031 360.246094 322.058594 "/>
<path style=" stroke:none;fill-rule:nonzero;fill:rgb(22.399902%,21.998596%,21.998596%);fill-opacity:1;" d="M 421.679688 285.257813 L 410.101563 285.5625 C 405.613281 285.710938 403.761719 286.097656 402.585938 287.8125 L 401.289063 290.53125 L 400.40625 291.460938 L 399.726563 290.230469 L 401.34375 281.292969 L 402.269531 279.84375 C 402.917969 279.84375 403.691406 280.585938 405.613281 280.753906 C 407.835938 280.988281 410.789063 281.140625 413.375 281.140625 L 444.085938 281.140625 C 449.058594 281.140625 450.90625 280.351563 451.527344 280.351563 L 452.164063 281.996094 C 452.164063 283.628906 451.929688 288.984375 451.929688 290.988281 L 451.210938 292.246094 L 450.382813 290.671875 L 450.300781 289.816406 C 450.132813 287.8125 448.046875 285.644531 441.128906 285.492188 L 431.375 285.257813 L 431.375 317.054688 C 431.375 324.183594 431.375 330.316406 431.761719 333.660156 C 431.984375 335.84375 432.453125 337.527344 434.800781 337.859375 L 438.738281 338.148438 L 439.980469 338.796875 L 438.503906 339.570313 C 433.390625 339.570313 428.476563 339.308594 426.332031 339.308594 C 424.535156 339.308594 419.660156 339.570313 416.566406 339.570313 L 415.007813 338.796875 L 416.25 338.148438 L 419.027344 337.859375 C 420.601563 337.527344 421.042969 335.84375 421.292969 333.578125 C 421.679688 330.316406 421.679688 324.183594 421.679688 317.054688 "/>
<path style=" stroke:none;fill-rule:nonzero;fill:rgb(22.399902%,21.998596%,21.998596%);fill-opacity:1;" d="M 477.664063 297.921875 L 478.203125 297.109375 C 478.796875 296.914063 479.875 296.847656 481.378906 296.847656 C 484.945313 296.847656 490.59375 299.320313 490.59375 307.871094 C 490.59375 312.785156 488.851563 315.5625 487.058594 316.890625 C 485.96875 317.664063 485.179688 317.910156 482.761719 317.910156 C 481.257813 317.910156 479.445313 317.71875 478.203125 317.320313 L 477.664063 316.214844 Z M 470.5625 322.058594 C 470.5625 327.582031 470.5625 332.359375 470.246094 334.875 C 470.011719 336.617188 469.695313 337.941406 468.507813 338.191406 L 466.335938 338.410156 L 465.382813 338.910156 L 466.585938 339.519531 C 469.003906 339.519531 472.789063 339.308594 473.921875 339.308594 C 474.832031 339.308594 479.28125 339.519531 482.761719 339.519531 L 483.976563 338.910156 L 483.261719 338.410156 L 480.304688 338.191406 C 478.507813 337.941406 478.132813 336.617188 477.957031 334.875 C 477.664063 332.359375 477.664063 327.582031 477.664063 322 L 477.664063 321.171875 L 478.132813 320.675781 L 483.371094 320.800781 L 484.445313 321.226563 C 485.234375 322.109375 488.011719 326.199219 490.414063 329.515625 C 493.785156 334.15625 496.066406 336.976563 498.648438 338.355469 C 500.222656 339.199219 501.714844 339.519531 505.085938 339.519531 L 510.832031 339.519531 L 511.949219 338.910156 L 511.246094 338.410156 L 509.546875 338.246094 C 508.621094 338.054688 506.1875 337.636719 502.792969 334.15625 C 499.257813 330.414063 495.082031 325.054688 489.753906 318.324219 C 495.828125 313.382813 497.683594 309.292969 497.683594 304.84375 C 497.683594 300.824219 495.292969 297.742188 493.605469 296.609375 C 490.332031 294.386719 486.324219 294.042969 482.539063 294.042969 C 480.664063 294.042969 476.101563 294.207031 474.046875 294.207031 C 472.789063 294.207031 469.003906 294.042969 465.8125 294.042969 L 464.472656 294.566406 L 465.519531 295.105469 L 467.871094 295.285156 C 469.847656 295.699219 470.304688 296.679688 470.425781 298.738281 C 470.5625 300.644531 470.5625 302.328125 470.5625 311.460938 "/>
<path style=" stroke:none;fill-rule:nonzero;fill:rgb(22.399902%,21.998596%,21.998596%);fill-opacity:1;" d="M 527.40625 311.460938 C 527.40625 302.328125 527.40625 300.644531 527.296875 298.738281 C 527.175781 296.679688 526.6875 295.699219 524.699219 295.285156 L 522.367188 295.105469 L 521.332031 294.566406 L 522.683594 294.042969 C 525.847656 294.042969 529.644531 294.207031 531.316406 294.207031 C 533.238281 294.207031 545.214844 294.207031 546.359375 294.125 L 548.945313 293.78125 L 549.910156 293.515625 L 550.285156 294.070313 C 550.285156 294.496094 549.980469 295.230469 549.785156 297.992188 L 549.496094 301.957031 L 548.886719 302.621094 L 548.335938 301.777344 L 547.992188 299.621094 C 547.5625 298.53125 546.941406 297.8125 543.957031 297.453125 L 535.40625 297.21875 L 535.003906 297.8125 L 535.003906 313.023438 L 535.40625 313.699219 C 536.746094 313.699219 543.636719 313.699219 545.0625 313.574219 C 546.484375 313.464844 547.382813 313.269531 547.90625 312.664063 L 548.886719 311.890625 L 549.316406 312.359375 C 549.316406 312.730469 548.996094 313.699219 548.832031 316.765625 L 548.597656 320.800781 L 548.046875 321.917969 L 547.492188 321.40625 L 547.257813 319.238281 C 546.941406 318.023438 546.136719 317.109375 543.902344 316.890625 C 542.742188 316.765625 536.804688 316.710938 535.335938 316.710938 L 535.003906 317.316406 L 535.003906 322.058594 C 535.003906 324.101563 534.949219 329.640625 535.003906 331.394531 C 535.113281 335.539063 536.085938 336.449219 542.21875 336.449219 C 543.789063 336.449219 546.304688 336.449219 547.851563 335.703125 C 549.441406 335 550.160156 333.730469 550.558594 331.257813 L 551.238281 330.359375 L 551.722656 331.449219 C 551.722656 332.816406 551.238281 336.90625 550.945313 338.121094 C 550.476563 339.683594 549.980469 339.683594 547.6875 339.683594 C 538.597656 339.683594 534.5625 339.308594 531.027344 339.308594 C 529.644531 339.308594 525.847656 339.519531 523.457031 339.519531 L 522.242188 338.910156 L 523.207031 338.410156 L 525.363281 338.191406 C 526.578125 337.941406 526.882813 336.617188 527.105469 334.875 C 527.40625 332.359375 527.40625 327.582031 527.40625 322.058594 "/>
<path style=" stroke:none;fill-rule:nonzero;fill:rgb(22.399902%,21.998596%,21.998596%);fill-opacity:1;" d="M 576.863281 311.460938 C 576.863281 302.328125 576.863281 300.644531 576.75 298.738281 C 576.625 296.679688 576.144531 295.699219 574.15625 295.285156 L 571.820313 295.105469 L 570.796875 294.566406 L 572.09375 294.042969 C 575.285156 294.042969 579.085938 294.207031 580.769531 294.207031 C 582.691406 294.207031 594.652344 294.207031 595.8125 294.125 L 598.398438 293.78125 L 599.378906 293.515625 L 599.734375 294.070313 C 599.734375 294.496094 599.433594 295.230469 599.238281 297.992188 L 598.949219 301.957031 L 598.328125 302.621094 L 597.800781 301.777344 L 597.414063 299.621094 C 597.003906 298.53125 596.394531 297.8125 593.410156 297.453125 L 584.859375 297.21875 L 584.460938 297.8125 L 584.460938 313.023438 L 584.859375 313.699219 C 586.183594 313.699219 593.09375 313.699219 594.515625 313.574219 C 595.925781 313.464844 596.839844 313.269531 597.375 312.664063 L 598.328125 311.890625 L 598.769531 312.359375 C 598.769531 312.730469 598.453125 313.699219 598.273438 316.765625 L 598.023438 320.800781 L 597.5 321.917969 L 596.945313 321.40625 L 596.710938 319.238281 C 596.394531 318.023438 595.566406 317.109375 593.355469 316.890625 C 592.222656 316.765625 586.238281 316.710938 584.804688 316.710938 L 584.460938 317.316406 L 584.460938 322.058594 C 584.460938 324.101563 584.390625 329.640625 584.460938 331.394531 C 584.570313 335.539063 585.507813 336.449219 591.667969 336.449219 C 593.214844 336.449219 595.757813 336.449219 597.320313 335.703125 C 598.882813 335 599.613281 333.730469 599.984375 331.257813 L 600.648438 330.359375 L 601.148438 331.449219 C 601.148438 332.816406 600.648438 336.90625 600.371094 338.121094 C 599.957031 339.683594 599.433594 339.683594 597.113281 339.683594 C 588.050781 339.683594 584.046875 339.308594 580.480469 339.308594 C 579.085938 339.308594 575.285156 339.519531 572.882813 339.519531 L 571.667969 338.910156 L 572.664063 338.410156 L 574.800781 338.191406 C 576.019531 337.941406 576.339844 336.617188 576.554688 334.875 C 576.863281 332.359375 576.863281 327.582031 576.863281 322.058594 "/>
<path style=" stroke:none;fill-rule:nonzero;fill:rgb(22.399902%,21.998596%,21.998596%);fill-opacity:1;" d="M 460.492188 390.984375 L 607.929688 390.984375 L 607.929688 388.609375 L 460.492188 388.609375 Z M 460.492188 390.984375 "/>
<path style=" stroke:none;fill-rule:nonzero;fill:rgb(22.399902%,21.998596%,21.998596%);fill-opacity:1;" d="M 36.074219 390.984375 L 183.515625 390.984375 L 183.515625 388.609375 L 36.074219 388.609375 Z M 36.074219 390.984375 "/>
<path style=" stroke:none;fill-rule:nonzero;fill:rgb(22.399902%,21.998596%,21.998596%);fill-opacity:1;" d="M 269.449219 411.957031 L 269.449219 409.71875 L 275.269531 409.71875 L 275.269531 389.992188 L 259.71875 389.992188 L 259.71875 409.71875 L 265.65625 409.71875 L 265.65625 411.957031 L 244.351563 411.957031 L 244.351563 409.71875 L 249.785156 409.71875 L 249.785156 369.519531 L 244.351563 369.519531 L 244.351563 367.28125 L 265.65625 367.28125 L 265.65625 369.519531 L 259.71875 369.519531 L 259.71875 387.339844 L 275.269531 387.339844 L 275.269531 369.519531 L 269.449219 369.519531 L 269.449219 367.28125 L 290.652344 367.28125 L 290.652344 369.519531 L 285.148438 369.519531 L 285.148438 409.71875 L 290.652344 409.71875 L 290.652344 411.957031 "/>
<path style=" stroke:none;fill-rule:nonzero;fill:rgb(22.399902%,21.998596%,21.998596%);fill-opacity:1;" d="M 295.246094 411.957031 L 295.246094 409.800781 L 300.453125 409.800781 L 300.453125 382.035156 L 295.246094 382.035156 L 295.246094 379.824219 L 310.046875 379.824219 L 310.046875 409.800781 L 314.992188 409.800781 L 314.992188 411.957031 Z M 300.019531 367.28125 L 309.703125 367.28125 L 309.703125 372.585938 L 300.019531 372.585938 Z M 300.019531 367.28125 "/>
<path style=" stroke:none;fill-rule:nonzero;fill:rgb(22.399902%,21.998596%,21.998596%);fill-opacity:1;" d="M 317.839844 411.957031 L 317.839844 409.71875 L 323.226563 409.71875 L 323.226563 363.636719 L 317.839844 363.636719 L 317.839844 361.535156 L 332.910156 361.535156 L 332.910156 409.71875 L 337.964844 409.71875 L 337.964844 411.957031 "/>
<path style=" stroke:none;fill-rule:nonzero;fill:rgb(22.399902%,21.998596%,21.998596%);fill-opacity:1;" d="M 353.078125 411.957031 C 348.65625 411.957031 344.996094 409.910156 344.996094 405.050781 L 344.996094 381.980469 L 339.734375 381.980469 L 339.734375 379.824219 L 344.996094 379.824219 L 344.996094 367.421875 L 354.046875 367.421875 L 354.046875 379.824219 L 361.503906 379.824219 L 361.503906 381.980469 L 354.046875 381.980469 L 354.046875 409.800781 L 361.628906 409.800781 L 361.628906 411.957031 "/>
<path style=" stroke:none;fill-rule:nonzero;fill:rgb(22.399902%,21.998596%,21.998596%);fill-opacity:1;" d="M 382.253906 412.839844 C 372.058594 412.839844 363.574219 406.429688 363.574219 395.753906 C 363.574219 385.433594 372.183594 378.996094 382.003906 378.996094 C 392.226563 378.996094 399.964844 386.152344 399.964844 396.570313 C 399.964844 406.570313 391.921875 412.839844 382.253906 412.839844 M 374.28125 395.628906 C 374.28125 398.476563 374.15625 404.855469 375.59375 407.480469 C 377.003906 409.859375 379.199219 411.019531 382.003906 411.019531 C 389.464844 411.019531 389.574219 402.824219 389.546875 397.34375 L 389.546875 395.308594 C 389.464844 389.496094 390.195313 381.070313 381.921875 381.070313 C 374.019531 381.070313 374.28125 389.921875 374.28125 395.628906 "/>
<path style=" stroke:none;fill-rule:nonzero;fill:rgb(22.399902%,21.998596%,21.998596%);fill-opacity:1;" d="M 426.414063 411.957031 L 426.414063 409.800781 L 430.710938 409.800781 L 430.710938 390.269531 C 430.710938 386.703125 430.710938 382.339844 426.015625 382.339844 C 422.339844 382.339844 418.886719 385.960938 417.976563 389.289063 C 417.617188 390.875 417.699219 392.589844 417.699219 394.164063 L 417.699219 409.800781 L 422.617188 409.800781 L 422.617188 411.957031 L 402.878906 411.957031 L 402.878906 409.800781 L 408.070313 409.800781 L 408.070313 382.035156 L 402.878906 382.035156 L 402.878906 379.824219 L 417.699219 379.824219 L 417.699219 384.742188 C 419.660156 382.421875 420.960938 381.136719 423.820313 379.992188 C 425.65625 379.246094 427.671875 378.789063 429.636719 378.789063 C 431.085938 378.789063 432.617188 379.050781 434 379.4375 C 439.25 380.957031 440.503906 384.382813 440.503906 389.289063 L 440.503906 409.800781 L 445.574219 409.800781 L 445.574219 411.957031 "/>
<path style=" stroke:none;fill-rule:nonzero;fill:rgb(22.399902%,21.998596%,21.998596%);fill-opacity:1;" d="M 446.765625 405.230469 L 446.765625 404.386719 L 452.867188 404.386719 L 452.867188 405.230469 L 450.328125 405.230469 L 450.328125 412.039063 L 449.304688 412.039063 L 449.304688 405.230469 "/>
<path style=" stroke:none;fill-rule:nonzero;fill:rgb(22.399902%,21.998596%,21.998596%);fill-opacity:1;" d="M 455.136719 404.386719 L 457.550781 410.824219 L 459.96875 404.386719 L 461.378906 404.386719 L 461.378906 412.039063 L 460.398438 412.039063 L 460.398438 405.683594 L 460.382813 405.683594 L 458.007813 412.039063 L 457.125 412.039063 L 454.746094 405.683594 L 454.707031 405.683594 L 454.707031 412.039063 L 453.78125 412.039063 L 453.78125 404.386719 "/>
<path style=" stroke:none;fill-rule:nonzero;fill:rgb(22.399902%,21.998596%,21.998596%);fill-opacity:1;" d="M 202.34375 391.953125 C 202.34375 393.515625 202.710938 394.800781 203.449219 395.765625 L 206.300781 397.230469 L 207.914063 396.734375 L 208.378906 394.910156 L 208.378906 386.207031 L 207.984375 384.273438 L 206.585938 383.722656 C 205.296875 383.722656 204.261719 384.21875 203.488281 385.171875 C 202.722656 386.152344 202.34375 387.453125 202.34375 389.082031 Z M 195.125 397.921875 L 195.125 396.789063 L 197.148438 396.789063 L 197.148438 374.355469 L 195.125 374.355469 L 195.125 373.25 L 198.695313 373.058594 L 202.34375 372.78125 L 202.34375 385.460938 L 204.40625 383.335938 L 207.191406 382.644531 C 209.199219 382.644531 210.871094 383.375 212.171875 384.882813 C 213.53125 386.359375 214.179688 388.238281 214.179688 390.53125 C 214.179688 392.753906 213.519531 394.59375 212.15625 396.125 C 210.828125 397.601563 209.1875 398.363281 207.191406 398.363281 L 204.40625 397.660156 L 202.34375 395.574219 L 202.34375 397.921875 "/>
<path style=" stroke:none;fill-rule:nonzero;fill:rgb(22.399902%,21.998596%,21.998596%);fill-opacity:1;" d="M 223.84375 402.285156 C 223.25 403.640625 222.613281 404.621094 221.945313 405.28125 L 219.660156 406.234375 L 217.875 405.640625 L 217.234375 403.914063 L 217.890625 402.300781 L 219.472656 401.664063 L 221.066406 402.3125 L 221.875 402.964844 L 222.359375 402.757813 L 222.847656 401.871094 L 224.535156 397.949219 L 217.546875 384.21875 L 215.949219 384.21875 L 215.949219 383.085938 L 225.03125 383.085938 L 225.03125 384.21875 L 223.160156 384.21875 L 226.882813 392.1875 L 229.714844 385.683594 L 229.882813 385.199219 L 229.941406 384.828125 L 229.6875 384.382813 L 228.921875 384.21875 L 227.464844 384.21875 L 227.464844 383.085938 L 233.414063 383.085938 L 233.414063 384.21875 L 232.375 384.21875 L 231.578125 384.46875 L 231.039063 385.269531 "/>
</g>
</svg>
